<svg width="170" height="57" viewBox="0 0 170 57" fill="none" xmlns="http://www.w3.org/2000/svg">
<path d="M89.162 1.27841L60.5911 46.7361L59.0658 49.1617L57.273 52.0213L57.0968 52.0413L48.4176 39.6111L49.9681 37.1299L61.8608 18.1858L89.162 1.27841Z" fill="url(#paint0_linear_3_43)"/>
<g style="mix-blend-mode:multiply" opacity="0.16">
<g style="mix-blend-mode:multiply" opacity="0.16">
<path d="M60.5911 46.7361L57.273 52.0206L57.0968 52.0406L48.4176 39.6111L49.9673 37.1299C52.6656 39.5518 57.2085 43.6587 60.5911 46.7361Z" fill="black"/>
</g>
</g>
<path d="M42.0273 30.4663L57.0965 52.0375L41.2304 53.9899L33.8437 43.4157L42.0273 30.4663Z" fill="url(#paint1_linear_3_43)"/>
<g style="mix-blend-mode:screen" opacity="0.3">
<g style="mix-blend-mode:screen" opacity="0.3">
<path d="M89.1612 1.27841L60.5904 46.7361L59.0651 49.1617C58.42 50.1245 57.7577 51.0874 57.0984 52.0406C58.3429 49.8779 59.6158 47.7271 60.8917 45.577C62.1535 43.4232 63.4366 41.28 64.7408 39.1475C67.3447 34.8806 69.9053 30.5819 72.5555 26.3343C75.1774 22.0771 77.8497 17.8481 80.5048 13.6094C82.6902 10.1787 84.8779 6.74706 87.0687 3.31443C85.6048 4.21061 84.1431 5.09198 82.6595 5.9652L75.758 10.0795C73.4609 11.462 71.1534 12.8221 68.8354 14.1597C66.5195 15.5143 64.2036 16.8689 61.8633 18.1888L89.1612 1.27841Z" fill="white"/>
</g>
</g>
<g style="mix-blend-mode:screen" opacity="0.3">
<g style="mix-blend-mode:screen" opacity="0.3">
<path d="M42.0272 30.4663L55.8795 50.2963C55.9959 50.4926 56.1068 50.6821 56.2162 50.8829C55.5436 50.0867 54.9009 49.272 54.2456 48.4551C53.6029 47.6404 52.9397 46.8257 52.319 45.9999C51.6787 45.1741 51.051 44.3504 50.4248 43.5149C49.8112 42.6825 49.1834 41.8589 48.5722 41.0145C47.3482 39.3358 46.142 37.6481 44.9536 35.9515C43.9592 34.5591 42.9979 33.1371 42.0335 31.7299C40.8299 33.5568 39.6051 35.3754 38.359 37.1855C37.6258 38.2365 36.9045 39.2896 36.1367 40.3213C35.3815 41.3582 34.6358 42.404 33.8459 43.4194L42.0272 30.4663Z" fill="white"/>
</g>
</g>
<g style="mix-blend-mode:screen" opacity="0.15">
<g style="mix-blend-mode:screen" opacity="0.15">
<path d="M63.3429 19.1405L82.5015 7.64944L60.7415 42.6188L63.3429 19.1405Z" fill="white"/>
</g>
</g>
<g style="mix-blend-mode:screen" opacity="0.15">
<g style="mix-blend-mode:screen" opacity="0.15">
<path d="M35.3233 43.4491L42.1122 34.2755L53.9026 50.2082L35.3233 43.4491Z" fill="white"/>
</g>
</g>
<path d="M0.981506 56.0681L29.5521 10.6134L31.0775 8.18782L32.8703 5.3282L33.0465 5.3082L41.7273 17.7347L40.1768 20.2151L28.2785 39.157L0.981506 56.0681Z" fill="url(#paint2_linear_3_43)"/>
<g style="mix-blend-mode:multiply" opacity="0.16">
<g style="mix-blend-mode:multiply" opacity="0.16">
<path d="M29.5493 10.6105L32.8674 5.3253L33.0437 5.3053L41.7244 17.7318L40.1739 20.2129C37.4773 17.7873 32.9319 13.6842 29.5493 10.6105Z" fill="black"/>
</g>
</g>
<path d="M48.1124 26.8765L33.0432 5.30531L48.9085 3.35297L56.2953 13.9271L48.1124 26.8765Z" fill="url(#paint3_linear_3_43)"/>
<g style="mix-blend-mode:multiply" opacity="0.16">
<g style="mix-blend-mode:multiply" opacity="0.16">
<path d="M0.981506 56.0682L29.5521 10.6143L31.0775 8.1887C31.7225 7.22586 32.3841 6.26303 33.0441 5.30908C31.7988 7.47176 30.5268 9.62255 29.2509 11.7734C27.9891 13.9267 26.706 16.0696 25.4017 18.2022C22.7979 22.469 20.2373 26.7677 17.5863 31.0153C14.9651 35.2725 12.2929 39.5016 9.6371 43.7402C7.45177 47.1709 5.26408 50.6026 3.07402 54.0352C4.53799 53.139 5.99959 52.2576 7.48323 51.3852L14.3846 47.2701C16.6811 45.8877 18.9887 44.5276 21.3072 43.19C23.6231 41.8353 25.939 40.4807 28.2793 39.1609L0.981506 56.0682Z" fill="black"/>
</g>
</g>
<g style="mix-blend-mode:multiply" opacity="0.3">
<g style="mix-blend-mode:multiply" opacity="0.3">
<path d="M48.1126 26.8766L34.2572 7.04661C34.1416 6.85034 34.0299 6.66074 33.9213 6.46002C34.5939 7.25621 35.2366 8.07093 35.888 8.88786C36.5307 9.70256 37.193 10.5173 37.8145 11.3431C38.4548 12.1689 39.0825 12.9925 39.7087 13.8272C40.3215 14.6604 40.9501 15.484 41.5606 16.3284C42.7856 18.0072 43.9918 19.6948 45.1792 21.3914C46.1735 22.7838 47.1348 24.2058 48.0993 25.613C49.3029 23.7861 50.5274 21.9676 51.7729 20.1575C52.5068 19.1065 53.2283 18.0533 53.9953 17.0216C54.7623 15.9899 55.497 14.9389 56.286 13.9235L48.1126 26.8766Z" fill="black"/>
</g>
</g>
<g style="mix-blend-mode:screen" opacity="0.3">
<g style="mix-blend-mode:screen" opacity="0.3">
<path d="M26.7964 38.2024L7.63892 49.6935L29.3979 14.7241C29.3979 14.7241 29.3877 15.1632 26.7964 38.2024Z" fill="white"/>
</g>
</g>
<g style="mix-blend-mode:screen" opacity="0.2">
<g style="mix-blend-mode:screen" opacity="0.2">
<path d="M54.8153 13.8938L48.0233 23.0674L36.2328 7.13464L54.8153 13.8938Z" fill="white"/>
</g>
</g>
<path d="M82.8516 42V22.8047H86.8125L91.8516 32.3203L93.8438 36.1172H93.9375C93.6875 34.3984 93.5625 32.5312 93.5625 30.5156V22.8047H97.4531V42H93.5156L88.5 32.8359L86.4375 28.7812H86.3203C86.6016 30.7031 86.7422 32.5781 86.7422 34.4062V42H82.8516ZM102.093 42V22.8047H115.054V26.1562H105.983V30.4453H114.14V33.7266H105.983V38.6719H115.312V42H102.093ZM116.998 42L123.045 32.1562L117.326 22.8047H121.826L123.865 26.6953C123.928 26.8047 124.131 27.1797 124.475 27.8203C124.818 28.4609 125.068 28.9453 125.225 29.2734H125.318C125.647 28.6172 126.1 27.7578 126.678 26.6953L128.74 22.8047H133.24L127.498 32.1562L133.568 42H129.115L126.748 37.7109C126.545 37.3672 126.279 36.8906 125.951 36.2812C125.623 35.6719 125.412 35.2812 125.318 35.1094H125.225C125.193 35.1719 124.99 35.5547 124.615 36.2578C124.256 36.9453 123.99 37.4297 123.818 37.7109L121.475 42H116.998ZM136.286 34.6875V22.8047H140.2V34.7109C140.2 37.6328 141.325 39.0938 143.575 39.0938C145.825 39.0938 146.95 37.6328 146.95 34.7109V22.8047H150.864V34.6875C150.864 37.1875 150.255 39.1016 149.036 40.4297C147.833 41.7578 146.013 42.4219 143.575 42.4219C141.247 42.4219 139.45 41.7891 138.185 40.5234C136.919 39.2422 136.286 37.2969 136.286 34.6875ZM153.957 37.6172L157.332 36.4688C157.738 37.2188 158.356 37.8438 159.184 38.3438C160.027 38.8438 160.902 39.0938 161.809 39.0938C162.699 39.0938 163.41 38.8828 163.942 38.4609C164.488 38.0234 164.762 37.4766 164.762 36.8203C164.762 36.0703 164.457 35.4766 163.848 35.0391C163.238 34.5859 162.34 34.1562 161.152 33.75C159.309 33.1406 158.074 32.6719 157.449 32.3438C155.59 31.3281 154.66 29.8281 154.66 27.8438C154.66 26.2188 155.309 24.9062 156.606 23.9062C157.902 22.8906 159.567 22.3828 161.598 22.3828C163.348 22.3828 164.824 22.7969 166.027 23.625C167.246 24.4375 168.145 25.4922 168.723 26.7891L165.442 27.8672C164.41 26.4453 163.121 25.7344 161.574 25.7344C160.684 25.7344 159.981 25.9297 159.465 26.3203C158.949 26.6953 158.692 27.1953 158.692 27.8203C158.692 28.0859 158.731 28.3281 158.809 28.5469C158.887 28.7656 159.035 28.9688 159.254 29.1562C159.488 29.3438 159.684 29.5 159.84 29.625C160.012 29.75 160.293 29.8906 160.684 30.0469C161.09 30.2031 161.387 30.3203 161.574 30.3984C161.777 30.4609 162.137 30.5703 162.652 30.7266C163.184 30.8828 163.535 30.9922 163.707 31.0547C164.41 31.2891 165.035 31.5469 165.582 31.8281C166.145 32.1094 166.684 32.4688 167.199 32.9062C167.715 33.3281 168.113 33.8594 168.395 34.5C168.676 35.1406 168.817 35.8594 168.817 36.6562C168.817 38.4844 168.137 39.9062 166.777 40.9219C165.434 41.9219 163.746 42.4219 161.715 42.4219C159.949 42.4219 158.371 41.9922 156.981 41.1328C155.59 40.2734 154.582 39.1016 153.957 37.6172Z" fill="black"/>
<defs>
<linearGradient id="paint0_linear_3_43" x1="136.588" y1="267.581" x2="193.019" y2="267.581" gradientUnits="userSpaceOnUse">
<stop stop-color="#233B55"/>
<stop offset="1" stop-color="#131D32"/>
</linearGradient>
<linearGradient id="paint1_linear_3_43" x1="129.389" y1="255.117" x2="129.389" y2="278.428" gradientUnits="userSpaceOnUse">
<stop stop-color="#233B55"/>
<stop offset="1" stop-color="#131D32"/>
</linearGradient>
<linearGradient id="paint2_linear_3_43" x1="-1036.08" y1="225.048" x2="-979.646" y2="225.048" gradientUnits="userSpaceOnUse">
<stop stop-color="#F80300"/>
<stop offset="0.033" stop-color="#F81000"/>
<stop offset="0.158" stop-color="#F93F00"/>
<stop offset="0.288" stop-color="#FA6800"/>
<stop offset="0.419" stop-color="#FA8900"/>
<stop offset="0.554" stop-color="#FBA300"/>
<stop offset="0.693" stop-color="#FBB500"/>
<stop offset="0.838" stop-color="#FBC000"/>
<stop offset="1" stop-color="#FCC400"/>
</linearGradient>
<linearGradient id="paint3_linear_3_43" x1="-1043.27" y1="212.595" x2="-1043.27" y2="235.907" gradientUnits="userSpaceOnUse">
<stop stop-color="#F80300"/>
<stop offset="0.033" stop-color="#F81000"/>
<stop offset="0.158" stop-color="#F93F00"/>
<stop offset="0.288" stop-color="#FA6800"/>
<stop offset="0.419" stop-color="#FA8900"/>
<stop offset="0.554" stop-color="#FBA300"/>
<stop offset="0.693" stop-color="#FBB500"/>
<stop offset="0.838" stop-color="#FBC000"/>
<stop offset="1" stop-color="#FCC400"/>
</linearGradient>
</defs>
</svg>
